<svg width="21" height="18" viewBox="0 0 21 18" fill="none" xmlns="http://www.w3.org/2000/svg">
<path fill-rule="evenodd" clip-rule="evenodd" d="M12.7239 2.4675L13.2869 3H15.2692C15.7054 3 16.0622 3.3375 16.0622 3.75C16.0622 4.1625 15.7054 4.5 15.2692 4.5H5.75388C5.31776 4.5 4.96094 4.1625 4.96094 3.75C4.96094 3.3375 5.31776 3 5.75388 3H7.73625L8.29924 2.4675C8.44197 2.3325 8.64814 2.25 8.8543 2.25H12.1688C12.375 2.25 12.5811 2.3325 12.7239 2.4675ZM5.75388 14.25C5.75388 15.075 6.46753 15.75 7.33977 15.75H13.6833C14.5556 15.75 15.2692 15.075 15.2692 14.25V6.75C15.2692 5.925 14.5556 5.25 13.6833 5.25H7.33977C6.46753 5.25 5.75388 5.925 5.75388 6.75V14.25ZM8.13272 6.75H12.8904C13.3265 6.75 13.6833 7.0875 13.6833 7.5V13.5C13.6833 13.9125 13.3265 14.25 12.8904 14.25H8.13272C7.6966 14.25 7.33977 13.9125 7.33977 13.5V7.5C7.33977 7.0875 7.6966 6.75 8.13272 6.75Z" fill="#888888"/>
</svg>
