<svg width="22" height="20" viewBox="0 0 22 20" fill="none" xmlns="http://www.w3.org/2000/svg">
<path fill-rule="evenodd" clip-rule="evenodd" d="M13.3252 7.39549L17.5894 7.74549C18.3648 7.80382 18.6731 8.72049 18.0828 9.20382L14.8494 11.8538L15.8185 15.7955C15.9947 16.5122 15.1754 17.0788 14.5058 16.6955L10.8494 14.6038L7.19305 16.6872C6.52345 17.0705 5.70408 16.5038 5.88029 15.7872L6.84944 11.8538L3.61599 9.20382C3.02569 8.72049 3.34286 7.80382 4.11819 7.74549L8.37366 7.40382L10.0388 3.68716C10.3384 3.01216 11.3604 3.01216 11.66 3.68716L13.3252 7.39549ZM7.53666 14.9372L10.8494 13.0455L14.171 14.9455L13.2899 11.3788L16.215 8.97883L12.356 8.66216L10.8494 5.2955L9.35163 8.65383L5.49263 8.97049L8.41771 11.3705L7.53666 14.9372Z" fill="#888888"/>
</svg>
