<svg width="20" height="18" viewBox="0 0 20 18" fill="none" xmlns="http://www.w3.org/2000/svg">
<path fill-rule="evenodd" clip-rule="evenodd" d="M2.26074 9C2.26074 4.86 5.8052 1.5 10.1822 1.5C14.5672 1.5 18.1196 4.86 18.1196 9C18.1196 13.14 14.5672 16.5 10.1822 16.5C5.8052 16.5 2.26074 13.14 2.26074 9ZM10.9831 6C10.9831 5.5875 10.6263 5.25 10.1902 5.25C9.75406 5.25 9.39723 5.5875 9.39723 6V9C9.39723 9.4125 9.75406 9.75 10.1902 9.75C10.6263 9.75 10.9831 9.4125 10.9831 9V6ZM10.1902 15C6.68537 15 3.84663 12.315 3.84663 9C3.84663 5.685 6.68537 3 10.1902 3C13.695 3 16.5337 5.685 16.5337 9C16.5337 12.315 13.695 15 10.1902 15ZM9.39723 11.25V12.75H10.9831V11.25H9.39723Z" fill="#888888"/>
</svg>
